<?xml version="1.0" ?>
<!-- Uploaded to: SVG Repo, www.svgrepo.com, Generator: SVG Repo Mixer Tools -->
<svg fill="#000000" width="800px" height="800px" viewBox="0 0 64 64" xmlns="http://www.w3.org/2000/svg">
<g data-name="Layer 36" id="Layer_36">
<path d="M32,3A29,29,0,1,0,61,32,29,29,0,0,0,32,3Zm0,56A27,27,0,1,1,59,32,27,27,0,0,1,32,59ZM48.67,41.25a1,1,0,0,1,.08,1.42A1,1,0,0,1,48,43a1,1,0,0,1-.67-.25l-.53-.49C44.21,39.92,39.88,36,32,36s-12.21,3.92-14.8,6.26l-.53.49a1,1,0,1,1-1.34-1.5l.53-.47C18.66,38.24,23.35,34,32,34s13.34,4.24,16.14,6.78ZM36,22a6,6,0,1,0,9.69-4.73l1.76-.88a1,1,0,1,0-.9-1.78L43.17,16.3l-.09,0-6.25,3.12,0,0a.88.88,0,0,0-.24.19l-.08.09a.94.94,0,0,0-.12.22l0,.06a.09.09,0,0,1,0,.05h0A6.2,6.2,0,0,0,36,22Zm6,4a4,4,0,0,1-4-4,4,4,0,0,1,.13-.95l5.44-2.72A4,4,0,0,1,42,26ZM16,22a6,6,0,0,0,12,0,6.43,6.43,0,0,0-.3-1.89s0,0,0,0v0l0,0a1.1,1.1,0,0,0-.15-.26l-.06-.08a1.24,1.24,0,0,0-.26-.19s0,0,0,0l-6.24-3.12h0l-.09,0-3.38-1.69a1,1,0,0,0-.9,1.78l1.76.88A6,6,0,0,0,16,22Zm4.43-3.67,5.44,2.72A4,4,0,0,1,26,22a4,4,0,1,1-5.57-3.67Z"/>
</g>
</svg>