<?xml version="1.0" encoding="utf-8"?>
<!-- Uploaded to: SVG Repo, www.svgrepo.com, Generator: SVG Repo Mixer Tools -->
<svg width="800px" height="800px" viewBox="0 0 1024 1024" class="icon"  version="1.1" xmlns="http://www.w3.org/2000/svg"><path d="M169.536 597.333333h214.784c1.258667-4.458667 63.104-128 62.528-255.957333C446.08 170.666667 362.176 85.333333 293.866667 85.717333c-88.298667 0.469333-179.562667 139.114667-164.010667 356.522667 4.416 62.250667 37.994667 150.72 39.68 155.093333zM403.285333 804.010667c10.794667 63.914667-21.781333 122.24-85.632 133.056-63.829333 10.816-121.28-34.709333-132.096-98.645334 0 0-15.04-112.661333-15.04-155.328h213.205334l19.562666 120.917334zM854.272 597.333333H639.36c-1.258667-4.458667-63.146667-128-62.570667-255.957333C577.557333 170.666667 661.546667 85.333333 729.877333 85.717333c88.362667 0.469333 179.669333 139.114667 164.117334 356.544-4.437333 62.229333-38.037333 150.698667-39.722667 155.072zM620.714667 804.010667c-10.816 63.914667 21.781333 122.24 85.674666 133.056 63.872 10.816 121.344-34.709333 132.181334-98.645334 0 0 14.976-112.661333 14.976-155.328h-213.333334l-19.498666 120.917334z" fill="#8D6E63" /><path d="M403.285333 804.010667l-19.562666-120.917334H170.517333c0 42.666667 15.04 155.328 15.04 155.328 8.042667 47.552 42.026667 84.48 85.077334 96.064-23.744-18.901333-42.005333-61.333333-46.826667-89.834666-3.541333-20.458667-3.712-82.261333-7.808-119.338667h132.330667l21.162666 108.672c4.608 27.306667-3.136 71.424-25.664 94.912 46.186667-20.437333 68.650667-70.485333 59.456-124.885333zM366.442667 597.333333l21.333333-20.906666-30.165333-30.165334-30.122667 30.165334 21.290667 20.906666zM247.189333 597.333333l21.333334-20.906666-30.165334-30.165334L208.213333 576.426667l21.333334 20.906666zM389.056 286.805333l20.202667-21.482666c1.749333 9.130667 1.856 35.477333 3.2 45.333333l-23.402667-23.850667zM238.357333 256.64l-30.186666-30.165333 30.186666-30.165334 30.165334 30.165334zM409.834667 494.698667l7.786666 5.717333c-0.682667 12.437333-7.957333 13.525333-16.853333 45.845333l-21.056-21.418666 30.122667-30.144zM409.834667 376.362667l7.445333 7.189333c0.832 17.322667-0.128 24.512 0.106667 43.114667l-7.552 10.026666-30.122667-30.165333 30.122667-30.165333zM389.077333 347.157333l-30.122666 30.165334-30.186667-30.144 30.122667-30.165334zM178.112 316.992l-8.064-8.789333c0-19.114667 2.24-35.712 11.178667-49.408l27.029333 28.010666-30.144 30.186667zM268.544 347.157333l-30.08 30.186667-30.229333-30.144 30.101333-30.165333zM298.666667 256.682667l30.144 30.165333-30.165334 30.144-30.144-30.165333zM328.810667 166.08L298.688 196.266667l-30.186667-30.122667L298.666667 135.978667zM358.912 256.64l-30.122667-30.165333 30.122667-30.186667 30.101333 30.122667v0.064zM158.954667 517.354667l19.114666-19.349334 30.165334 30.186667-30.165334 30.165333-19.114666-19.712c-1.194667-10.624 0.704-10.752 0-21.290666zM266.56 524.864l30.165333-30.165333 30.144 30.144-30.165333 30.165333zM328.810667 407.466667l-30.165334 30.186666-30.165333-30.144 30.144-30.165333zM158.954667 418.282667c0.576-10.282667 0-13.546667 1.002666-23.552l18.133334-17.408 30.165333 30.165333-30.165333 30.165333-19.136-19.370666zM268.48 467.84l-30.144 30.144-30.165333-30.165333 30.144-30.165334zM328.768 467.84l30.122667-30.165333 30.186666 30.122666-30.122666 30.165334z" fill="#6D4C41" /><path d="M129.642667 442.133333C114.112 224.938667 205.504 85.333333 299.328 85.333333c69.994667 0 148.565333 106.666667 148.565333 256.042667 0 127.957333-56.938667 241.792-64.170666 256.384h0.746666c13.546667-37.205333 28.010667-188.821333 28.010667-254.656 0-129.770667-71.402667-214.613333-115.946667-214.613333-77.653333 0-164.352 236.501333-127.104 468.842666 0 0-35.242667-91.413333-39.786666-155.2zM620.714667 804.010667l19.498666-120.917334h213.333334c0 42.666667-14.976 155.328-14.976 155.328-8.042667 47.552-42.048 84.48-85.141334 96.064 23.765333-18.901333 42.048-61.333333 46.869334-89.834666 3.541333-20.458667 3.648-82.261333 7.744-119.338667H675.626667l-21.098667 108.672c-4.629333 27.306667 3.136 71.424 25.664 94.912-46.208-20.437333-68.693333-70.485333-59.477333-124.885333zM657.514667 597.333333l-21.354667-20.906666 30.186667-30.165334 30.144 30.165334-21.312 20.906666zM776.832 597.333333l-21.333333-20.906666 30.165333-30.165334 30.165333 30.165334-21.333333 20.906666zM634.88 286.805333l-20.224-21.482666c-1.749333 9.130667-1.856 35.477333-3.2 45.333333l23.424-23.850667zM755.477333 226.474667l30.186667-30.165334 30.165333 30.165334-30.165333 30.165333zM614.08 494.698667l-7.786667 5.717333c0.682667 12.437333 7.957333 13.525333 16.874667 45.845333l21.056-21.418666-30.144-30.144zM614.08 376.362667l-7.445333 7.189333c-0.832 17.322667 0.128 24.512-0.106667 43.114667l7.552 10.026666 30.144-30.165333-30.144-30.165333zM665.066667 317.034667l30.144 30.165333-30.186667 30.165333-30.144-30.165333zM845.952 316.992l8.064-8.789333c0-19.114667-2.24-35.712-11.178667-49.408l-27.050666 28.010666 30.165333 30.186667zM785.728 316.992l30.122667 30.165333-30.186667 30.144-30.144-30.186666zM755.52 286.805333L725.333333 317.013333l-30.186666-30.186666 30.186666-30.165334zM725.333333 135.978667l30.165334 30.208-30.186667 30.144-30.165333-30.208zM665.045333 256.64l30.144-30.165333-30.144-30.186667-30.122666 30.122667v0.064zM865.130667 517.354667l-19.136-19.349334-30.186667 30.186667 30.186667 30.165333 19.136-19.712c1.194667-10.624-0.704-10.752 0-21.290666zM727.253333 554.965333L697.109333 524.8l30.144-30.165333 30.186667 30.165333zM725.333333 377.322667l30.165334 30.186666L725.333333 437.674667l-30.186666-30.165334zM865.130667 418.282667c-0.576-10.282667 0-13.546667-1.002667-23.552l-18.154667-17.408-30.186666 30.165333 30.186666 30.165333 19.157334-19.370666zM785.664 437.653333l30.165333 30.165334-30.165333 30.186666-30.186667-30.186666zM665.002667 497.941333l-30.144-30.165333 30.186666-30.165333 30.144 30.165333z" fill="#6D4C41" /><path d="M894.464 442.133333C909.994667 224.938667 818.538667 85.333333 724.672 85.333333 651.328 85.333333 576 192 576 341.376 576 469.333333 632.981333 583.168 640.213333 597.76h-0.746666c-13.546667-37.205333-28.010667-188.821333-28.010667-254.656 0-129.770667 71.445333-214.613333 116.010667-214.613333 77.717333 0 164.458667 236.501333 127.168 468.842666 0 0 35.264-91.413333 39.829333-155.2z" fill="#6D4C41" /></svg>